<?xml version="1.0" encoding="UTF-8" standalone="no"?>
<svg
   xmlns:dc="http://purl.org/dc/elements/1.1/"
   xmlns:cc="http://creativecommons.org/ns#"
   xmlns:rdf="http://www.w3.org/1999/02/22-rdf-syntax-ns#"
   xmlns:svg="http://www.w3.org/2000/svg"
   xmlns="http://www.w3.org/2000/svg"
   xmlns:sodipodi="http://sodipodi.sourceforge.net/DTD/sodipodi-0.dtd"
   xmlns:inkscape="http://www.inkscape.org/namespaces/inkscape"
   width="512"
   height="512"
   viewBox="0 0 56 56"
   version="1.1"
   id="svg34"
   sodipodi:docname="design.svg"
   inkscape:version="0.92.2 5c3e80d, 2017-08-06">
  <metadata
     id="metadata38">
    <rdf:RDF>
      <cc:Work
         rdf:about="">
        <dc:format>image/svg+xml</dc:format>
        <dc:type
           rdf:resource="http://purl.org/dc/dcmitype/StillImage" />
      </cc:Work>
    </rdf:RDF>
  </metadata>
  <sodipodi:namedview
     pagecolor="#ffffff"
     bordercolor="#666666"
     borderopacity="1"
     objecttolerance="10"
     gridtolerance="10"
     guidetolerance="10"
     inkscape:pageopacity="0"
     inkscape:pageshadow="2"
     inkscape:window-width="1680"
     inkscape:window-height="953"
     id="namedview36"
     showgrid="false"
     inkscape:zoom="0.4609375"
     inkscape:cx="256"
     inkscape:cy="256"
     inkscape:window-x="1"
     inkscape:window-y="1"
     inkscape:window-maximized="0"
     inkscape:current-layer="043---Browser" />
  <!-- Generator: Sketch 51.3 (57544) - http://www.bohemiancoding.com/sketch -->
  <title
     id="title2">043 - Browser</title>
  <desc
     id="desc4">Created with Sketch.</desc>
  <defs
     id="defs6" />
  <g
     id="Page-1"
     stroke="none"
     stroke-width="1"
     fill="none"
     fill-rule="evenodd">
    <g
       id="043---Browser"
       fill="#000000"
       fill-rule="nonzero">
      <polygon
         id="Shape"
         points="30.141 29.267 41.686 17 33.748 17"
         style="fill:#679d05;fill-opacity:1" />
      <polygon
         id="polygon9"
         points="14.314 17 25.859 29.267 22.252 17"
         style="fill:#679d05;fill-opacity:1" />
      <polygon
         id="polygon11"
         points="24.337 17 28 29.456 31.663 17"
         style="fill:#679d05;fill-opacity:1" />
      <polygon
         id="polygon13"
         points="26.301 8 19.699 8 23 13.94"
         style="fill:#679d05;fill-opacity:1" />
      <polygon
         id="polygon15"
         points="36.301 8 29.699 8 33 13.94"
         style="fill:#679d05;fill-opacity:1" />
      <polygon
         id="polygon17"
         points="34.699 15 42.131 15 38.078 8.919"
         style="fill:#679d05;fill-opacity:1" />
      <polygon
         id="polygon19"
         points="31.301 15 28 9.06 24.699 15"
         style="fill:#679d05;fill-opacity:1" />
      <polygon
         id="polygon21"
         points="17.922 8.919 13.869 15 21.301 15"
         style="fill:#679d05;fill-opacity:1" />
      <path
         d="M56,1 C56,0.44771525 55.5522847,0 55,0 L1,0 C0.44771525,0 0,0.44771525 0,1 L0,36 L56,36 L56,1 Z M47,3 C47,2.44771525 47.4477153,2 48,2 C48.5522847,2 49,2.44771525 49,3 L49,4 C49,4.55228475 48.5522847,5 48,5 C47.4477153,5 47,4.55228475 47,4 L47,3 Z M45,5 L46,5 C46.5522847,5 47,5.44771525 47,6 C47,6.55228475 46.5522847,7 46,7 L45,7 C44.4477153,7 44,6.55228475 44,6 C44,5.44771525 44.4477153,5 45,5 Z M9,2 L15,2 C15.5522847,2 16,2.44771525 16,3 C16,3.55228475 15.5522847,4 15,4 L9,4 C8.44771525,4 8,3.55228475 8,3 C8,2.44771525 8.44771525,2 9,2 Z M10,12 L9,12 C8.44771525,12 8,11.5522847 8,11 C8,10.4477153 8.44771525,10 9,10 L10,10 C10.5522847,10 11,10.4477153 11,11 C11,11.5522847 10.5522847,12 10,12 Z M11,27 C11,26.4477153 11.4477153,26 12,26 C12.5522847,26 13,26.4477153 13,27 L13,28 C13,28.5522847 12.5522847,29 12,29 C11.4477153,29 11,28.5522847 11,28 L11,27 Z M7,7 C7.55228475,7 8,7.44771525 8,8 L8,9 C8,9.55228475 7.55228475,10 7,10 C6.44771525,10 6,9.55228475 6,9 L6,8 C6,7.44771525 6.44771525,7 7,7 Z M2,3 C2,2.44771525 2.44771525,2 3,2 L5,2 C5.55228475,2 6,2.44771525 6,3 C6,3.55228475 5.55228475,4 5,4 L3,4 C2.44771525,4 2,3.55228475 2,3 Z M5,12 L4,12 C3.44771525,12 3,11.5522847 3,11 C3,10.4477153 3.44771525,10 4,10 L5,10 C5.55228475,10 6,10.4477153 6,11 C6,11.5522847 5.55228475,12 5,12 Z M7,15 C6.44771525,15 6,14.5522847 6,14 L6,13 C6,12.4477153 6.44771525,12 7,12 C7.55228475,12 8,12.4477153 8,13 L8,14 C8,14.5522847 7.55228475,15 7,15 Z M10,31 L9,31 C8.44771525,31 8,30.5522847 8,30 C8,29.4477153 8.44771525,29 9,29 L10,29 C10.5522847,29 11,29.4477153 11,30 C11,30.5522847 10.5522847,31 10,31 Z M13,33 C13,33.5522847 12.5522847,34 12,34 C11.4477153,34 11,33.5522847 11,33 L11,32 C11,31.4477153 11.4477153,31 12,31 C12.5522847,31 13,31.4477153 13,32 L13,33 Z M15,31 L14,31 C13.4477153,31 13,30.5522847 13,30 C13,29.4477153 13.4477153,29 14,29 L15,29 C15.5522847,29 16,29.4477153 16,30 C16,30.5522847 15.5522847,31 15,31 Z M28.674,33.723 C28.609197,33.7836468 28.5361397,33.8348206 28.457,33.875 C28.4267476,33.8936238 28.3953521,33.9103235 28.363,33.925 C28.1313296,34.0249952 27.8686704,34.0249952 27.637,33.925 C27.6046479,33.9103235 27.5732524,33.8936238 27.543,33.875 C27.4638603,33.8348206 27.390803,33.7836468 27.326,33.723 C27.309,33.708 27.287,33.702 27.272,33.686 L11.272,16.686 C11.1923597,16.6008831 11.1283772,16.5023703 11.083,16.395 C11.0772795,16.3772898 11.0726047,16.3592587 11.069,16.341 C11.0330481,16.2447778 11.0121361,16.1435908 11.007,16.041 C11.007,16.028 11,16.018 11,16.005 C11,15.975 11.015,15.949 11.017,15.92 C11.0229385,15.838639 11.0390645,15.7583449 11.065,15.681 C11.0815391,15.6348628 11.1015982,15.5900643 11.125,15.547 C11.1376063,15.5129503 11.1519587,15.4795727 11.168,15.447 L17.168,6.447 C17.177,6.434 17.19,6.424 17.2,6.411 C17.21,6.398 17.23,6.376 17.245,6.358 C17.316852,6.27123039 17.4031131,6.1974856 17.5,6.14 C17.5,6.14 17.508,6.131 17.514,6.128 L17.52,6.128 C17.6227943,6.07429723 17.7341007,6.03877391 17.849,6.023 C17.8774491,6.01779686 17.9061571,6.01412491 17.935,6.012 C17.957,6.012 17.978,6.004 18,6.004 L38,6.004 C38.022,6.004 38.043,6.011 38.065,6.012 C38.0938429,6.01412491 38.1225509,6.01779686 38.151,6.023 C38.2658993,6.03877391 38.3772057,6.07429723 38.48,6.128 L38.486,6.128 C38.492,6.128 38.495,6.137 38.5,6.14 C38.5968869,6.1974856 38.683148,6.27123039 38.755,6.358 C38.77,6.376 38.786,6.392 38.8,6.411 C38.814,6.43 38.823,6.434 38.832,6.447 L44.832,15.447 C44.8480413,15.4795727 44.8623937,15.5129503 44.875,15.547 C44.8984018,15.5900643 44.9184609,15.6348628 44.935,15.681 C44.9609355,15.7583449 44.9770615,15.838639 44.983,15.92 C44.983,15.949 45,15.975 45,16.005 C45,16.018 44.993,16.028 44.993,16.041 C44.9878639,16.1435908 44.9669519,16.2447778 44.931,16.341 C44.9273953,16.3592587 44.9227205,16.3772898 44.917,16.395 C44.8716228,16.5023703 44.8076403,16.6008831 44.728,16.686 L28.728,33.686 C28.713,33.7 28.691,33.708 28.674,33.723 Z M44,24 L44,25 C44,25.5522847 43.5522847,26 43,26 C42.4477153,26 42,25.5522847 42,25 L42,24 C42,23.4477153 42.4477153,23 43,23 C43.5522847,23 44,23.4477153 44,24 Z M41,28 L40,28 C39.4477153,28 39,27.5522847 39,27 C39,26.4477153 39.4477153,26 40,26 L41,26 C41.5522847,26 42,26.4477153 42,27 C42,27.5522847 41.5522847,28 41,28 Z M44,30 C44,30.5522847 43.5522847,31 43,31 C42.4477153,31 42,30.5522847 42,30 L42,29 C42,28.4477153 42.4477153,28 43,28 C43.5522847,28 44,28.4477153 44,29 L44,30 Z M46,28 L45,28 C44.4477153,28 44,27.5522847 44,27 C44,26.4477153 44.4477153,26 45,26 L46,26 C46.5522847,26 47,26.4477153 47,27 C47,27.5522847 46.5522847,28 46,28 Z M49,9 C49,9.55228475 48.5522847,10 48,10 C47.4477153,10 47,9.55228475 47,9 L47,8 C47,7.44771525 47.4477153,7 48,7 C48.5522847,7 49,7.44771525 49,8 L49,9 Z M51,7 L50,7 C49.4477153,7 49,6.55228475 49,6 C49,5.44771525 49.4477153,5 50,5 L51,5 C51.5522847,5 52,5.44771525 52,6 C52,6.55228475 51.5522847,7 51,7 Z"
         id="path23"
         style="fill:#679d05;fill-opacity:1" />
      <path
         d="M35,44 L55,44 C55.5522847,44 56,43.5522847 56,43 L56,38 L0,38 L0,43 C0,43.5522847 0.44771525,44 1,44 L35,44 Z M26,40 L30,40 C30.5522847,40 31,40.4477153 31,41 C31,41.5522847 30.5522847,42 30,42 L26,42 C25.4477153,42 25,41.5522847 25,41 C25,40.4477153 25.4477153,40 26,40 Z"
         id="path25"
         style="fill:#679d05;fill-opacity:1" />
      <path
         d="M36,52 L20,52 C18.3431458,52 17,53.3431458 17,55 L17,56 L39,56 L39,55 C39,53.3431458 37.6568542,52 36,52 Z"
         id="path27"
         style="fill:#679d05;fill-opacity:1" />
      <rect
         id="Rectangle-path"
         x="22"
         y="46"
         width="12"
         height="4"
         style="fill:#679d05;fill-opacity:1" />
      <path
         d="M52,50.1 L52,52 C52,52.5522847 51.5522847,53 51,53 C50.4477153,53 50,52.5522847 50,52 L50,50.1 C47.6735832,50.5784327 46.0029983,52.6248992 46,55 L46,56 L56,56 L56,55 C55.9970017,52.6248992 54.3264168,50.5784327 52,50.1 Z"
         id="path30"
         style="fill:#679d05;fill-opacity:1" />
    </g>
  </g>
</svg>
