<?xml version="1.0" encoding="UTF-8" standalone="no"?>
<!-- Generator: Adobe Illustrator 19.0.0, SVG Export Plug-In . SVG Version: 6.00 Build 0)  -->

<svg
   xmlns:dc="http://purl.org/dc/elements/1.1/"
   xmlns:cc="http://creativecommons.org/ns#"
   xmlns:rdf="http://www.w3.org/1999/02/22-rdf-syntax-ns#"
   xmlns:svg="http://www.w3.org/2000/svg"
   xmlns="http://www.w3.org/2000/svg"
   xmlns:sodipodi="http://sodipodi.sourceforge.net/DTD/sodipodi-0.dtd"
   xmlns:inkscape="http://www.inkscape.org/namespaces/inkscape"
   version="1.1"
   id="Capa_1"
   x="0px"
   y="0px"
   viewBox="0 0 512 512"
   style="enable-background:new 0 0 512 512;"
   xml:space="preserve"
   sodipodi:docname="web.svg"
   inkscape:version="0.92.2 5c3e80d, 2017-08-06"><metadata
     id="metadata47"><rdf:RDF><cc:Work
         rdf:about=""><dc:format>image/svg+xml</dc:format><dc:type
           rdf:resource="http://purl.org/dc/dcmitype/StillImage" /></cc:Work></rdf:RDF></metadata><defs
     id="defs45" /><sodipodi:namedview
     pagecolor="#ffffff"
     bordercolor="#666666"
     borderopacity="1"
     objecttolerance="10"
     gridtolerance="10"
     guidetolerance="10"
     inkscape:pageopacity="0"
     inkscape:pageshadow="2"
     inkscape:window-width="1680"
     inkscape:window-height="953"
     id="namedview43"
     showgrid="false"
     inkscape:zoom="0.4609375"
     inkscape:cx="-145.35593"
     inkscape:cy="256"
     inkscape:window-x="1"
     inkscape:window-y="1"
     inkscape:window-maximized="0"
     inkscape:current-layer="g6" /><g
     id="g10"><g
       id="g8"><g
         id="g6"><path
           d="M438.857,457.143H384c-5.049,0-9.143,4.093-9.143,9.143c0,5.049,4.093,9.143,9.143,9.143h54.857     c5.049,0,9.143-4.093,9.143-9.143C448,461.236,443.907,457.143,438.857,457.143z"
           id="path2"
           style="fill:#679d05;fill-opacity:1" /><path
           d="M457.143,54.857H512V18.286C512,8.187,503.813,0,493.714,0H18.286C8.187,0,0,8.187,0,18.286v36.571h402.286     c5.049,0,9.143,4.093,9.143,9.143s-4.093,9.143-9.143,9.143H0v420.571C0,503.813,8.187,512,18.286,512h475.429     c10.099,0,18.286-8.187,18.286-18.286V73.143h-54.857c-5.049,0-9.143-4.093-9.143-9.143S452.093,54.857,457.143,54.857z      M36.571,36.571h-9.143c-5.049,0-9.143-4.093-9.143-9.143c0-5.049,4.093-9.143,9.143-9.143h9.143     c5.049,0,9.143,4.093,9.143,9.143C45.714,32.478,41.621,36.571,36.571,36.571z M82.286,36.571h-9.143     c-5.049,0-9.143-4.093-9.143-9.143c0-5.049,4.093-9.143,9.143-9.143h9.143c5.049,0,9.143,4.093,9.143,9.143     C91.429,32.478,87.335,36.571,82.286,36.571z M128,36.571h-9.143c-5.049,0-9.143-4.093-9.143-9.143     c0-5.049,4.093-9.143,9.143-9.143H128c5.049,0,9.143,4.093,9.143,9.143C137.143,32.478,133.049,36.571,128,36.571z      M36.571,109.714c0-10.099,8.187-18.286,18.286-18.286h173.714c10.099,0,18.286,8.187,18.286,18.286v36.571     c0,10.099-8.187,18.286-18.286,18.286H128c-5.049,0-9.143-4.093-9.143-9.143s4.093-9.143,9.143-9.143h100.571v-36.571H54.857     v36.571h27.429c5.049,0,9.143,4.093,9.143,9.143s-4.093,9.143-9.143,9.143H54.857c-10.099,0-18.286-8.187-18.286-18.286V109.714z      M438.857,493.714H384c-15.148,0-27.429-12.28-27.429-27.429c0-15.148,12.28-27.429,27.429-27.429h54.857     c15.148,0,27.429,12.28,27.429,27.429C466.286,481.434,454.006,493.714,438.857,493.714z M475.429,402.286     c0,10.099-8.187,18.286-18.286,18.286H128c-5.049,0-9.143-4.093-9.143-9.143s4.093-9.143,9.143-9.143h329.143V292.571H54.857     v109.714h27.429c5.049,0,9.143,4.093,9.143,9.143s-4.093,9.143-9.143,9.143H54.857c-10.099,0-18.286-8.187-18.286-18.286V292.571     c0-10.099,8.187-18.286,18.286-18.286h402.286c10.099,0,18.286,8.187,18.286,18.286V402.286z M475.429,237.714     c0,10.099-8.187,18.286-18.286,18.286H128c-5.049,0-9.143-4.093-9.143-9.143c0-5.049,4.093-9.143,9.143-9.143h329.143v-36.571     H54.857v36.571h27.429c5.049,0,9.143,4.093,9.143,9.143c0,5.049-4.093,9.143-9.143,9.143H54.857     c-10.099,0-18.286-8.187-18.286-18.286v-36.571c0-10.099,8.187-18.286,18.286-18.286h402.286     c10.099,0,18.286,8.187,18.286,18.286V237.714z M457.143,91.429c10.099,0,18.286,8.187,18.286,18.286v36.571     c0,10.099-8.187,18.286-18.286,18.286H356.571c-5.049,0-9.143-4.093-9.143-9.143s4.093-9.143,9.143-9.143h100.571v-36.571     H283.429v36.571h27.429c5.049,0,9.143,4.093,9.143,9.143s-4.093,9.143-9.143,9.143h-27.429c-10.099,0-18.286-8.187-18.286-18.286     v-36.571c0-10.099,8.187-18.286,18.286-18.286H457.143z"
           id="path4"
           style="fill:#679d05;fill-opacity:1" /></g></g></g><g
     id="g12" /><g
     id="g14" /><g
     id="g16" /><g
     id="g18" /><g
     id="g20" /><g
     id="g22" /><g
     id="g24" /><g
     id="g26" /><g
     id="g28" /><g
     id="g30" /><g
     id="g32" /><g
     id="g34" /><g
     id="g36" /><g
     id="g38" /><g
     id="g40" /></svg>